<svg width="206" height="22" viewBox="0 0 206 22" fill="none" xmlns="http://www.w3.org/2000/svg">
<path d="M2 19.3437C2.86719 17.1424 9.97811 11.7925 16.6488 7.57667C20.0928 5.40007 23.3328 4.228 25.9944 4.0012C27.3471 3.88592 28.6559 5.09519 29.3364 7.08971C30.0168 9.08424 30.0168 12.1661 30.6772 13.3134C33.1238 17.5642 40.6631 9.12426 46.2265 7.12306C49.6749 5.88261 52.6837 5.10853 55.3452 5.99572C58.0068 6.88292 60.2482 8.65732 62.4628 10.4384C67.3655 14.3812 74.0164 7.79013 79.3596 4.6816C80.7525 3.87127 82.0212 2.90721 83.5821 3.33413C87.419 4.38353 89.5991 8.65732 91.5936 10.4384C95.5338 13.9568 102.033 5.57547 107.376 4.0012C113.2 2.28548 117.162 11.3122 122.052 13.5602C127.305 15.9753 132.718 7.79013 138.061 6.00907C140.723 5.12187 145.166 7.75011 150.716 12.1994C156.841 17.1099 165.618 7.79013 176.057 7.77679C179.399 8.21705 183.362 9.09758 187.604 8.67066C191.847 8.24374 196.25 6.48268 203.454 2" stroke="#A18BFF" stroke-width="4" stroke-linecap="round"/>
</svg>
