<svg width="42" height="52" viewBox="0 0 42 52" fill="none" xmlns="http://www.w3.org/2000/svg">
<path d="M8.87951 21.7571C8.87951 23.9455 8.50992 26.167 7.70355 28.0073C6.66874 30.3688 4.0338 30.4738 1.91894 30.6598C1.41506 30.7042 1.04724 30.8422 1.04164 30.8441C0.677653 30.9638 2.77198 30.5991 4.51166 30.8422C5.29716 30.952 5.75855 31.5717 6.1356 32.3693C6.98783 34.1721 7.0129 36.6042 7.0745 38.2639C7.10761 39.1562 8.49872 35.0348 9.74561 33.1227C11.0572 31.1114 12.9786 30.238 14.4737 29.4957C14.827 29.3202 15.2185 29.2507 14.8545 29.188C13.4023 28.9381 11.7466 28.7607 10.8152 28.0865C9.50295 26.9186 9.00643 25.4486 8.81791 23.6673C8.75631 23.2344 8.63311 22.8697 8.50618 21.3887" stroke="#A18BFF" stroke-width="2" stroke-linecap="round"/>
<path d="M34.6598 2.40096C34.8186 2.54573 33.8846 5.96874 31.7131 10.167C29.6833 14.0913 26.7304 14.2251 25.3224 14.8532C24.8841 15.0487 26.7164 14.3885 27.7251 14.2321C28.265 14.1483 28.8879 14.3838 29.2825 14.7714C30.9476 16.407 31.2321 18.7362 31.3139 22.1568C31.3687 24.4527 29.6817 26.208 29.0583 28.4658C28.9065 29.0158 28.7478 29.4769 28.8225 29.4839C30.583 29.6489 31.531 23.294 34.2605 19.6118C36.7616 16.2379 39.9461 15.9436 40.5719 15.7895C42.4591 15.3247 37.0041 13.9262 36.0631 12.2147C35.1133 10.4871 34.8186 8.48113 34.8139 4.67285C34.968 3.80659 35.2762 3.34427 35.5121 2.87495C35.7479 2.40563 35.902 1.94331 36.5278 1" stroke="#A18BFF" stroke-width="2" stroke-linecap="round"/>
<path d="M23.0349 35.562C22.0215 38.7713 21.2461 40.7623 20.6088 41.4009C19.2713 42.741 17.9216 42.6408 17.0656 43.0669C16.1961 43.4997 18.3362 45.026 19.1091 47.1105C19.1961 47.9205 19.1961 49.0184 19.1539 49.7106C19.1117 50.4029 19.0272 50.6563 18.9402 50.4055" stroke="#A18BFF" stroke-width="2" stroke-linecap="round"/>
<path d="M23.2909 36.074C22.779 37.1796 22.6101 38.3721 22.4809 39.9909C22.3924 41.0989 22.4361 42.3799 22.8187 43.488C23.2446 44.7214 24.7368 44.6883 25.081 44.9442C26.3942 45.9205 21.4278 46.8943 20.2646 48.3544C20.1354 48.6116 20.0509 48.8649 19.923 49.1221C19.795 49.3793 19.6261 49.6327 19.9639 49.8937" stroke="#A18BFF" stroke-width="2" stroke-linecap="round"/>
</svg>
