<svg width="237" height="81" viewBox="0 0 237 81" fill="none" xmlns="http://www.w3.org/2000/svg">
<path d="M207.795 55.0076C206.24 59.9296 205.051 62.9833 204.074 63.9626C202.022 66.018 199.952 65.8642 198.639 66.5178C197.306 67.1815 200.588 69.5224 201.774 72.7193C201.907 73.9616 201.907 75.6455 201.842 76.7072C201.778 77.7689 201.648 78.1575 201.515 77.7728" stroke="#A18BFF" stroke-width="3.06738" stroke-linecap="round"/>
<path d="M186.085 33.8351C186.085 37.1914 185.518 40.5985 184.281 43.4209C182.694 47.0428 178.653 47.2038 175.409 47.4891C174.637 47.5571 174.072 47.7688 174.064 47.7717C173.506 47.9553 176.718 47.3959 179.386 47.7688C180.591 47.9372 181.298 48.8876 181.876 50.1109C183.183 52.8759 183.222 56.606 183.316 59.1515C183.367 60.5199 185.501 54.1989 187.413 51.2664C189.425 48.1816 192.371 46.8422 194.665 45.7036C195.206 45.4346 195.807 45.3279 195.249 45.2318C193.021 44.8486 190.482 44.5764 189.053 43.5424C187.041 41.7512 186.279 39.4967 185.99 36.7648C185.896 36.1008 185.707 35.5415 185.512 33.27" stroke="#A18BFF" stroke-width="3.06738" stroke-linecap="round"/>
<path d="M225.624 4.14864C225.867 4.37067 224.435 9.62052 221.105 16.0593C217.992 22.078 213.463 22.2832 211.303 23.2465C210.631 23.5464 213.441 22.5339 214.988 22.2939C215.816 22.1655 216.772 22.5267 217.377 23.1212C219.931 25.6296 220.367 29.2018 220.492 34.4481C220.576 37.9693 217.989 40.6613 217.033 44.1242C216.8 44.9677 216.557 45.6748 216.671 45.6855C219.371 45.9386 220.825 36.1921 225.012 30.5447C228.847 25.3702 233.732 24.9189 234.691 24.6825C237.586 23.9697 229.219 21.8248 227.776 19.1999C226.319 16.5503 225.867 13.4738 225.86 7.63303C226.097 6.30445 226.569 5.5954 226.931 4.8756C227.293 4.15581 227.529 3.44675 228.489 2" stroke="#A18BFF" stroke-width="3.06738" stroke-linecap="round"/>
<path d="M208.186 55.7927C207.401 57.4883 207.142 59.3174 206.944 61.7999C206.808 63.4993 206.875 65.464 207.462 67.1635C208.115 69.0552 210.404 69.0044 210.932 69.3969C212.945 70.8942 205.329 72.3878 203.545 74.627C203.346 75.0215 203.217 75.41 203.021 75.8045C202.824 76.199 202.565 76.5876 203.083 76.9879" stroke="#A18BFF" stroke-width="3.06738" stroke-linecap="round"/>
<path d="M2.08539 77.9345C1.78962 77.9118 1.49697 78.0076 1.27182 78.2007C1.04667 78.3938 0.907465 78.6685 0.884819 78.9643C0.862174 79.26 0.957948 79.5527 1.15107 79.7778C1.3442 80.003 1.61885 80.1422 1.91461 80.1648C1.91461 80.1648 1.91461 80.1648 1.91461 80.1648C5.19757 80.4331 8.53246 80.616 11.8402 80.7022C18.5741 80.8798 25.3109 80.796 32.0256 80.6366C32.0272 80.6366 32.0288 80.6366 32.0304 80.6365C56.6108 79.9951 81.1834 79.369 105.751 78.7303C105.752 78.7303 105.752 78.7303 105.753 78.7303C128.959 78.1331 152.165 77.5237 175.352 77.2324C175.353 77.2324 175.353 77.2323 175.353 77.2323C180.207 77.1837 185.036 77.0954 189.859 77.0681C193.144 77.0448 196.398 77.1033 199.703 77.1869C199.944 77.192 200.18 77.108 200.36 76.9466C200.54 76.7852 200.65 76.5606 200.665 76.321C200.68 76.0813 200.599 75.8448 200.441 75.6622C200.282 75.4794 200.058 75.3666 199.819 75.3417C199.819 75.3417 199.819 75.3417 199.819 75.3417C196.544 74.9876 193.22 74.7082 189.908 74.5697C185.04 74.3585 180.191 74.3283 175.323 74.377C175.323 74.377 175.323 74.377 175.322 74.377C152.088 74.6691 128.891 75.3298 105.677 75.9893C105.677 75.9893 105.676 75.9893 105.675 75.9894C81.1021 76.6941 56.5324 77.7595 31.9759 78.4003C31.9744 78.4003 31.9728 78.4004 31.9712 78.4004C25.2798 78.5593 18.5692 78.6422 11.9013 78.4661C8.619 78.3802 5.36422 78.2021 2.08539 77.9345Z" fill="#A18BFF"/>
<path d="M21.1123 71.242C20.8172 71.2123 20.5223 71.3009 20.2925 71.4886C20.0628 71.6762 19.917 71.9474 19.8872 72.2425C19.8574 72.5377 19.9461 72.8325 20.1337 73.0623C20.3214 73.292 20.5926 73.4378 20.8877 73.4676C20.8877 73.4676 20.8877 73.4676 20.8877 73.4676C23.4231 73.7408 26.0234 73.9292 28.5896 74.0174C33.8189 74.1994 39.0418 74.1135 44.2444 73.9508C44.2446 73.9508 44.2447 73.9508 44.2448 73.9508C63.2693 73.2965 82.2793 72.6538 101.286 72.0019C101.287 72.0019 101.288 72.0018 101.289 72.0018C119.239 71.3923 137.195 70.7704 155.125 70.4734C155.125 70.4734 155.125 70.4734 155.125 70.4734C158.878 70.4238 162.61 70.3351 166.329 70.3095C168.865 70.2873 171.362 70.3478 173.924 70.4358C174.163 70.4427 174.399 70.3629 174.582 70.2053C174.764 70.0477 174.877 69.8265 174.897 69.5887C174.917 69.3508 174.841 69.114 174.687 68.9286C174.533 68.7431 174.313 68.6256 174.076 68.5932C174.076 68.5932 174.076 68.5932 174.076 68.5932C171.554 68.2355 168.965 67.9512 166.395 67.8114C162.615 67.5979 158.857 67.5685 155.085 67.6182C155.085 67.6182 155.085 67.6182 155.085 67.6182C137.094 67.9163 119.149 68.5896 101.189 69.2616C101.188 69.2616 101.187 69.2616 101.186 69.2617C82.1721 69.9798 63.1661 71.0618 44.1731 71.7151C44.173 71.7151 44.1729 71.7151 44.1727 71.7151C39.0007 71.877 33.8126 71.9612 28.6702 71.7819C26.1377 71.6943 23.6425 71.5142 21.1123 71.242Z" fill="#A18BFF"/>
</svg>
