<svg width="99" height="16" viewBox="0 0 99 16" fill="none" xmlns="http://www.w3.org/2000/svg">
<g clip-path="url(#clip0_263_1490)">
<path d="M5.64204 15.9999C4.38986 15.9999 3.50449 15.8228 2.98591 15.4687C2.46733 15.1145 2.20804 14.539 2.20804 13.7359C2.20804 12.9327 2.20804 12.3193 2.21437 11.7944C2.21437 11.2695 2.22069 10.7762 2.22069 10.3208C2.22069 9.61253 2.1954 8.90423 2.1448 8.18329C2.09421 7.46866 1.99935 6.77933 1.84757 6.12163C1.70212 5.46392 1.47445 4.86945 1.17721 4.33823C0.879981 3.807 0.481562 3.37064 -0.0117188 3.04178C0.829388 2.39672 1.79698 2.0742 2.88472 2.0742C3.63729 2.0742 4.23808 2.28921 4.6871 2.72558C5.12978 3.16194 5.46496 3.73744 5.69263 4.45839C5.91397 5.17933 6.05943 5.9825 6.12899 6.85522C6.19856 7.72795 6.23018 8.60068 6.23018 9.47973C6.23018 10.0489 6.22386 10.5991 6.20488 11.1303C6.18591 11.6615 6.17959 12.1485 6.17959 12.5975H6.66022C6.9448 11.9778 7.24836 11.2821 7.57089 10.4979C7.89342 9.72004 8.19698 8.92953 8.48156 8.12004C8.76615 7.31688 9.00014 6.55167 9.17722 5.83704C9.35429 5.12242 9.44915 4.52163 9.44915 4.03467C9.44915 3.82597 9.43018 3.63625 9.39224 3.4655C9.35429 3.30107 9.3037 3.15562 9.24678 3.02914C9.71476 2.70661 10.1575 2.46629 10.5748 2.30819C10.9922 2.15008 11.416 2.06787 11.846 2.06787C12.529 2.06787 13.0033 2.26392 13.2816 2.64969C13.5598 3.04178 13.699 3.54139 13.699 4.16115C13.699 4.61649 13.6104 5.16036 13.4397 5.7738C13.2689 6.39356 13.0412 7.05127 12.763 7.7406C12.4847 8.43625 12.1875 9.12558 11.8839 9.80858C11.5741 10.4979 11.2768 11.143 10.9859 11.7501C10.695 12.3572 10.4547 12.8821 10.2713 13.3311L10.5306 14.3493C10.1827 14.6339 9.74639 14.8995 9.22148 15.1461C8.69658 15.3928 8.12741 15.5951 7.51397 15.7469C6.90054 15.8987 6.28077 15.9809 5.64836 15.9809L5.64204 15.9999Z" fill="#A18BFF"/>
<path d="M16.3542 16C15.5636 16 15.0008 15.804 14.6656 15.4055C14.3304 15.0071 14.166 14.4379 14.166 13.698C14.166 13.4261 14.204 13.0466 14.2798 12.5534C14.3557 12.0664 14.4506 11.5225 14.5771 10.9217C14.7036 10.3209 14.83 9.71383 14.9692 9.09407C15.1083 8.47431 15.2348 7.89249 15.3613 7.34862L14.3241 5.78656C14.9818 5.38814 15.6079 5.05929 16.1961 4.79368C16.7905 4.52806 17.385 4.39526 17.9795 4.39526C18.498 4.39526 18.8585 4.50909 19.0672 4.73043C19.2696 4.95178 19.3708 5.2996 19.3708 5.76759C19.3708 5.95099 19.3265 6.25455 19.2316 6.67826C19.1368 7.10198 19.0229 7.59526 18.8901 8.16443C18.751 8.7336 18.6182 9.32806 18.4791 9.95415C18.3399 10.5802 18.2261 11.1937 18.1376 11.7945C18.0427 12.3953 17.9984 12.9328 17.9984 13.4008C17.9984 13.7739 18.0427 14.1028 18.1376 14.3937C18.2324 14.6846 18.3779 14.9186 18.5739 15.0893C17.8783 15.6964 17.1447 16 16.3668 16H16.3542ZM17.4672 3.19368C16.898 3.19368 16.43 3.06719 16.0569 2.82055C15.6838 2.57391 15.5004 2.23874 15.5004 1.81502C15.5004 1.3913 15.6395 1.06877 15.9115 0.803162C16.1834 0.537549 16.5123 0.335178 16.9044 0.202372C17.2965 0.0632411 17.6632 0 18.0111 0C18.5802 0 19.0482 0.120158 19.4214 0.360474C19.7945 0.600791 19.9779 0.942293 19.9779 1.37233C19.9779 1.73281 19.8577 2.04901 19.6237 2.32727C19.3897 2.60553 19.0798 2.82055 18.7067 2.96601C18.3273 3.11146 17.9162 3.18735 17.4735 3.18735L17.4672 3.19368Z" fill="#A18BFF"/>
<path d="M25.7454 16C24.5944 16 23.6205 15.7976 22.83 15.3866C22.0395 14.9755 21.4387 14.4063 21.0402 13.6664C20.6355 12.9328 20.4395 12.0791 20.4395 11.1115C20.4395 10.1439 20.6229 9.19526 20.9897 8.37313C21.3564 7.55099 21.8624 6.84269 22.5201 6.24823C23.1778 5.65376 23.943 5.19843 24.8157 4.8759C25.6885 4.55337 26.6308 4.39526 27.6489 4.39526C28.8505 4.39526 29.7359 4.66088 30.3051 5.1921C30.8742 5.72333 31.1588 6.39368 31.1588 7.19684C31.1588 7.8925 30.9312 8.54388 30.4821 9.15732C30.0331 9.77076 29.3059 10.264 28.3003 10.6435C27.2948 11.0229 25.9604 11.219 24.2908 11.2253C24.3288 12.0158 24.5122 12.6419 24.841 13.0909C25.1699 13.5399 25.581 13.7676 26.0742 13.7676C26.3209 13.7676 26.5802 13.7107 26.8521 13.5905C27.124 13.4704 27.3517 13.2617 27.5414 12.9581C27.7248 12.6546 27.8197 12.2372 27.8197 11.7059C28.6608 11.7059 29.3248 11.8008 29.8055 11.9842C30.2861 12.1676 30.5264 12.5028 30.5264 12.9897C30.5264 13.4324 30.3367 13.8878 29.9509 14.3557C29.5651 14.8174 29.0213 15.2095 28.3066 15.5257C27.592 15.8419 26.7446 16 25.7517 16H25.7454ZM24.4489 9.74546C25.3533 9.66957 26.0742 9.50515 26.6181 9.24586C27.162 8.98657 27.5604 8.68933 27.807 8.35416C28.0537 8.01898 28.1802 7.7091 28.1802 7.42451C28.1802 7.17787 28.1043 6.9755 27.9588 6.81107C27.8134 6.65297 27.5983 6.57076 27.3264 6.57076C26.8837 6.57076 26.4663 6.72254 26.0806 7.03242C25.6948 7.3423 25.3659 7.74072 25.0877 8.22767C24.8094 8.71463 24.5944 9.22056 24.4489 9.73914V9.74546Z" fill="#A18BFF"/>
<path d="M35.5675 16C35.1565 16 34.7581 15.9368 34.3723 15.8166C33.9802 15.6901 33.6577 15.4751 33.4047 15.1652C33.1517 14.8554 33.0253 14.4317 33.0253 13.8815C33.0379 13.3123 33.0442 12.8064 33.0505 12.3573C33.0505 11.9147 33.0569 11.4403 33.0569 10.9344C33.0569 10.4285 33.0569 9.95418 33.0632 9.49884C33.0632 9.04351 33.0695 8.67039 33.0695 8.3858C33.0695 7.54469 32.9747 6.87434 32.7849 6.37473C32.5952 5.87513 32.3549 5.48303 32.0703 5.19845C32.7154 4.66722 33.4173 4.40161 34.1889 4.40161C34.8845 4.40161 35.4094 4.60398 35.7699 5.0024C36.1304 5.40714 36.3707 5.95102 36.5035 6.64667C36.6363 7.34232 36.6996 8.11386 36.6996 8.96762C36.6996 9.42296 36.6996 9.94153 36.6932 10.517C36.6869 11.0925 36.6806 11.6617 36.6679 12.2245C36.6553 12.7874 36.6363 13.2933 36.611 13.736H37.2434C37.6735 12.9834 38.0592 12.2625 38.3944 11.5795C38.7296 10.8965 38.9636 10.2324 39.1027 9.57473C39.1027 9.15102 39.0648 8.68303 38.9826 8.16446C38.9004 7.64588 38.7992 7.1526 38.679 6.69094C38.5525 6.22928 38.426 5.88145 38.2869 5.66011C38.4703 5.41347 38.7549 5.21742 39.1407 5.06564C39.5264 4.92019 39.9185 4.8443 40.3296 4.8443C40.6521 4.8443 40.962 4.90122 41.2656 5.00873C41.5691 5.12256 41.8221 5.29964 42.0245 5.54628C42.2268 5.79292 42.328 6.12177 42.328 6.53284C42.328 6.91861 42.2458 7.32335 42.0877 7.74707C41.9296 8.17711 41.7462 8.68303 41.5502 9.2775L41.4743 13.736H42.1067C42.3913 13.1921 42.6948 12.5724 43.0173 11.8704C43.3399 11.1684 43.6434 10.4538 43.9343 9.72651C44.2253 8.99924 44.4656 8.30359 44.649 7.65853C44.8324 7.01347 44.9272 6.4696 44.9272 6.03323C44.9272 5.86248 44.9146 5.70438 44.883 5.57157C44.8513 5.43244 44.8134 5.31228 44.7628 5.19845C45.1928 4.92651 45.6229 4.72414 46.0466 4.59766C46.4703 4.46485 46.8498 4.40161 47.1976 4.40161C47.7415 4.40161 48.1336 4.55971 48.3675 4.88224C48.6015 5.20477 48.7217 5.62216 48.7217 6.14707C48.7217 6.58975 48.6268 7.1273 48.4371 7.74074C48.2474 8.3605 48.0071 9.00556 47.7225 9.68224C47.4379 10.3589 47.1533 10.9977 46.8687 11.6111C46.5841 12.2245 46.3565 12.7494 46.1794 13.1795L46.4387 14.2546C46.2553 14.4 45.9834 14.5771 45.6229 14.7732C45.2624 14.9692 44.8577 15.1652 44.4087 15.3486C43.9596 15.532 43.4853 15.6901 42.9984 15.8103C42.5114 15.9368 42.0434 15.9937 41.5944 15.9937C41.0505 15.9937 40.5636 15.8672 40.1399 15.6206C39.7098 15.3739 39.4253 14.9313 39.2798 14.3052C38.7359 14.8364 38.1668 15.2538 37.5786 15.551C36.9905 15.8483 36.3264 15.9937 35.5802 15.9937L35.5675 16Z" fill="#A18BFF"/>
<path d="M54.7979 15.9999C53.7355 15.9999 52.7742 15.7786 51.9268 15.3422C51.0793 14.9058 50.409 14.2228 49.9157 13.3122C49.4224 12.3952 49.1758 11.2379 49.1758 9.84023C49.1758 9.15722 49.2959 8.46157 49.5299 7.74062C49.7639 7.026 50.1054 6.32402 50.5608 5.65367C51.0098 4.97699 51.5726 4.36987 52.2493 3.83232C52.926 3.29477 53.7038 2.86473 54.5955 2.54853C55.4872 2.23232 56.4738 2.07422 57.5679 2.07422C58.2382 2.07422 58.839 2.16908 59.3766 2.35248C59.9141 2.53588 60.3378 2.81414 60.6477 3.18094C60.9576 3.54774 61.1094 4.00307 61.1094 4.54695C61.1094 5.09082 60.9892 5.52718 60.7489 5.88133C60.5086 6.24181 60.1924 6.50742 59.8003 6.69082C59.4082 6.86789 58.9845 6.96276 58.5291 6.96276C57.9853 6.96276 57.454 6.82363 56.9355 6.55169C56.4169 6.27975 55.9932 5.87501 55.6706 5.34378C55.2343 5.55248 54.8295 5.91295 54.4564 6.41256C54.077 6.91216 53.7797 7.50031 53.5584 8.16434C53.337 8.83469 53.2232 9.52402 53.2232 10.245C53.2232 10.7509 53.2865 11.2252 53.4193 11.6679C53.5521 12.1043 53.7481 12.4647 54.02 12.7367C54.292 13.0086 54.6398 13.1477 55.0572 13.1477C55.405 13.1477 55.7402 13.0149 56.0627 12.7493C56.3853 12.4837 56.6509 12.1296 56.8596 11.6805C57.0683 11.2379 57.1758 10.7319 57.1758 10.1754C57.9284 10.1754 58.5671 10.207 59.0793 10.2766C59.5916 10.3462 59.9837 10.4916 60.2556 10.713C60.5276 10.9343 60.6667 11.2821 60.6667 11.7501C60.6667 12.2181 60.5276 12.705 60.2556 13.1983C59.9837 13.6916 59.5916 14.1533 59.0793 14.5833C58.5671 15.0133 57.9473 15.3549 57.2201 15.6141C56.4928 15.8734 55.6896 16.0062 54.7979 16.0062V15.9999Z" fill="#A18BFF"/>
<path d="M64.1402 16.0001C63.3876 16.0001 62.8437 15.7661 62.5275 15.2918C62.205 14.8238 62.0469 14.1029 62.0469 13.1416C62.0469 12.8697 62.0785 12.4649 62.1481 11.9337C62.2176 11.4025 62.3062 10.7953 62.42 10.1123C62.5338 9.42934 62.654 8.72104 62.7931 7.98744C62.9323 7.25384 63.0587 6.53922 63.1852 5.84357C63.3117 5.14791 63.4192 4.53448 63.5204 3.98428L62.4832 2.49811C63.1409 2.11234 63.767 1.78981 64.3552 1.53052C64.9496 1.27123 65.5441 1.13843 66.1386 1.13843C66.6572 1.13843 67.0176 1.23961 67.2263 1.44199C67.435 1.64436 67.5299 1.98586 67.5299 2.45384C67.5299 2.89021 67.473 3.42776 67.3654 4.07914C67.2516 4.73052 67.1188 5.4325 66.9544 6.19772C66.7963 6.95661 66.6319 7.7408 66.4611 8.54396C66.2967 9.34712 66.1575 10.125 66.0437 10.8649C65.9299 11.6048 65.8793 12.2815 65.8793 12.8886C65.8793 13.3693 65.9236 13.7993 66.0184 14.1787C66.1133 14.5582 66.2587 14.8554 66.4548 15.0768C65.5884 15.6839 64.8232 15.9874 64.1528 15.9874L64.1402 16.0001Z" fill="#A18BFF"/>
<path d="M70.7292 16C69.9386 16 69.3758 15.804 69.0406 15.4055C68.7054 15.0071 68.541 14.4379 68.541 13.698C68.541 13.4261 68.579 13.0466 68.6548 12.5534C68.7307 12.0664 68.8256 11.5225 68.9521 10.9217C69.0786 10.3209 69.2051 9.71383 69.3442 9.09407C69.4833 8.47431 69.6098 7.89249 69.7363 7.34862L68.6991 5.78656C69.3568 5.38814 69.9829 5.05929 70.5711 4.79368C71.1655 4.52806 71.76 4.39526 72.3545 4.39526C72.873 4.39526 73.2335 4.50909 73.4422 4.73043C73.6509 4.95178 73.7458 5.2996 73.7458 5.76759C73.7458 5.95099 73.7015 6.25455 73.6066 6.67826C73.5118 7.10198 73.3979 7.59526 73.2651 8.16443C73.126 8.7336 72.9932 9.32806 72.8541 9.95415C72.7149 10.5802 72.6011 11.1937 72.5126 11.7945C72.4177 12.3953 72.3734 12.9328 72.3734 13.4008C72.3734 13.7739 72.4177 14.1028 72.5126 14.3937C72.6074 14.6846 72.7529 14.9186 72.9489 15.0893C72.2533 15.6964 71.5197 16 70.7418 16H70.7292ZM71.8422 3.19368C71.273 3.19368 70.8051 3.06719 70.4319 2.82055C70.0588 2.57391 69.8754 2.23874 69.8754 1.81502C69.8754 1.3913 70.0145 1.06877 70.2865 0.803162C70.5584 0.537549 70.8873 0.335178 71.2794 0.202372C71.6715 0.0632411 72.0383 0 72.3861 0C72.9552 0 73.4232 0.120158 73.7964 0.360474C74.1695 0.600791 74.3529 0.942293 74.3529 1.37233C74.3529 1.73281 74.2327 2.04901 73.9987 2.32727C73.7647 2.60553 73.4549 2.82055 73.0817 2.96601C72.7023 3.11146 72.2912 3.18735 71.8485 3.18735L71.8422 3.19368Z" fill="#A18BFF"/>
<path d="M80.062 16C78.9869 16 78.0509 15.7913 77.2667 15.3803C76.4825 14.9629 75.8754 14.3937 75.4454 13.6601C75.0153 12.9328 74.8066 12.0791 74.8066 11.1178C74.8066 10.1566 74.9837 9.20161 75.3442 8.37948C75.7047 7.55734 76.2106 6.84904 76.8683 6.25458C77.526 5.66011 78.2912 5.20477 79.164 4.88224C80.0367 4.55971 80.979 4.40161 81.9972 4.40161C83.0976 4.40161 83.9513 4.61031 84.5521 5.02137C85.1529 5.43877 85.4501 5.95102 85.4501 6.57078C85.4501 7.19054 85.2351 7.61426 84.8114 7.92414C84.3813 8.23402 83.9007 8.3858 83.3568 8.3858C82.9837 8.3858 82.5979 8.25932 82.1869 8.01268C81.7758 7.76604 81.4533 7.38027 81.2003 6.86169C80.6564 7.08303 80.1948 7.43086 79.8153 7.89252C79.4359 8.35418 79.1513 8.87276 78.9616 9.4356C78.7719 9.99845 78.677 10.555 78.677 11.0988C78.677 11.8261 78.8288 12.4585 79.1387 12.9834C79.4485 13.5083 79.9039 13.7739 80.511 13.7739C80.9347 13.7739 81.3142 13.6095 81.662 13.2807C82.0098 12.9518 82.1806 12.4269 82.1806 11.7123C83.0217 11.7123 83.6857 11.8071 84.1663 11.9905C84.647 12.1739 84.8873 12.5091 84.8873 12.9961C84.8873 13.4388 84.6912 13.8941 84.2928 14.3621C83.8944 14.8237 83.3379 15.2158 82.6232 15.532C81.9023 15.8483 81.0485 16.0064 80.062 16.0064V16Z" fill="#A18BFF"/>
<path d="M88.5698 16.0001C87.8173 16.0001 87.2734 15.7661 86.9572 15.2918C86.6347 14.8238 86.4766 14.1029 86.4766 13.1416C86.4766 12.8697 86.5082 12.4649 86.5777 11.9337C86.6473 11.4025 86.7358 10.7953 86.8497 10.1123C86.9635 9.42934 87.0837 8.72104 87.2228 7.98744C87.3619 7.25384 87.4884 6.53922 87.6149 5.84357C87.7414 5.14791 87.8489 4.53448 87.9501 3.98428L86.9129 2.49811C87.5706 2.11234 88.1967 1.78981 88.7849 1.53052C89.3793 1.27123 89.9738 1.13843 90.5683 1.13843C91.0868 1.13843 91.4473 1.23961 91.656 1.44199C91.8584 1.64436 91.9596 1.98586 91.9596 2.45384C91.9596 2.86491 91.909 3.36451 91.8141 3.95898C91.7129 4.55345 91.5928 5.20483 91.441 5.91946C91.2955 6.63408 91.1374 7.36135 90.9793 8.1076C90.8212 8.85384 90.6821 9.58112 90.5683 10.2894L91.7382 9.25226C92.1809 8.85384 92.592 8.49337 92.9714 8.15819C93.3509 7.82301 93.6544 7.48784 93.8821 7.14633C94.1098 6.80483 94.2236 6.43803 94.2236 6.03961C94.2236 5.86886 94.2109 5.71076 94.1856 5.57795C94.1603 5.43882 94.1224 5.31234 94.0718 5.18586C94.9509 4.65463 95.7793 4.38902 96.5572 4.38902C97.0758 4.38902 97.4932 4.55345 97.803 4.8823C98.1129 5.21116 98.2647 5.64119 98.2647 6.17242C98.2647 6.70365 98.1192 7.16531 97.8283 7.62064C97.5374 8.07598 97.1643 8.48704 96.7153 8.85384C96.2663 9.22064 95.8046 9.53685 95.3303 9.80878C95.6023 10.6752 95.9185 11.4973 96.2853 12.2752C96.6521 13.0531 97.0189 13.7108 97.392 14.2357C97.7651 14.7606 98.0813 15.0957 98.3406 15.2285C98.094 15.4878 97.7461 15.6776 97.3034 15.804C96.8608 15.9305 96.437 15.9874 96.0386 15.9874C95.2734 15.9874 94.6283 15.7282 94.1098 15.2096C93.5912 14.691 93.1169 13.8372 92.6995 12.6483L92.2378 11.3329L90.3279 12.2815C90.3153 12.3827 90.309 12.4839 90.309 12.5851V12.8886C90.309 13.3693 90.3532 13.7993 90.4481 14.1787C90.543 14.5582 90.6884 14.8554 90.8845 15.0768C90.0181 15.6839 89.2528 15.9874 88.5825 15.9874L88.5698 16.0001Z" fill="#A18BFF"/>
</g>
<defs>
<clipPath id="clip0_263_1490">
<rect width="98.3336" height="16" fill="white"/>
</clipPath>
</defs>
</svg>
